<mxfile host="app.diagrams.net" agent="Mozilla/5.0 (Macintosh; Intel Mac OS X 10_15_7) AppleWebKit/537.36 (KHTML, like Gecko) Chrome/120.0.0.0 Safari/537.36" version="24.7.10">
  <diagram name="Page-1" id="SvijPCgDWO3FzdBsP6Y4">
    <mxGraphModel>
      <root>
        <mxCell id="0" />
        <mxCell id="1" parent="0" />
        <mxCell id="2" value="Network" style="whiteSpace=wrap;strokeWidth=2;verticalAlign=top;" vertex="1" parent="1">
          <mxGeometry width="205" height="334" as="geometry" />
        </mxCell>
        <mxCell id="3" value="Peer 2" style="rounded=1;absoluteArcSize=1;arcSize=14;whiteSpace=wrap;strokeWidth=2;" vertex="1" parent="2">
          <mxGeometry x="43" y="117" width="60" height="34" as="geometry" />
        </mxCell>
        <mxCell id="4" value="Peer 1" style="rounded=1;absoluteArcSize=1;arcSize=14;whiteSpace=wrap;strokeWidth=2;" vertex="1" parent="2">
          <mxGeometry x="76" y="33" width="60" height="34" as="geometry" />
        </mxCell>
        <mxCell id="5" value="Peer 3" style="rounded=1;absoluteArcSize=1;arcSize=14;whiteSpace=wrap;strokeWidth=2;" vertex="1" parent="2">
          <mxGeometry x="118" y="200" width="60" height="34" as="geometry" />
        </mxCell>
        <mxCell id="6" value="Peer 4" style="rounded=1;absoluteArcSize=1;arcSize=14;whiteSpace=wrap;strokeWidth=2;" vertex="1" parent="2">
          <mxGeometry x="86" y="284" width="60" height="34" as="geometry" />
        </mxCell>
        <mxCell id="7" value="" style="curved=1;startArrow=none;endArrow=none;exitX=0.27;exitY=0.99;entryX=0.5;entryY=-0.01;" edge="1" parent="2" source="4" target="3">
          <mxGeometry relative="1" as="geometry">
            <Array as="points">
              <mxPoint x="73" y="92" />
            </Array>
          </mxGeometry>
        </mxCell>
        <mxCell id="8" value="" style="curved=1;startArrow=none;endArrow=none;exitX=0.71;exitY=0.99;entryX=0.43;entryY=0;" edge="1" parent="2" source="4" target="5">
          <mxGeometry relative="1" as="geometry">
            <Array as="points">
              <mxPoint x="138" y="92" />
              <mxPoint x="138" y="175" />
            </Array>
          </mxGeometry>
        </mxCell>
        <mxCell id="9" value="" style="curved=1;startArrow=none;endArrow=none;exitX=1;exitY=0.86;entryX=0.65;entryY=0;" edge="1" parent="2" source="3" target="5">
          <mxGeometry relative="1" as="geometry">
            <Array as="points">
              <mxPoint x="171" y="175" />
            </Array>
          </mxGeometry>
        </mxCell>
        <mxCell id="10" value="" style="curved=1;startArrow=none;endArrow=none;exitX=0.5;exitY=0.97;entryX=0.21;entryY=-0.01;" edge="1" parent="2" source="3" target="6">
          <mxGeometry relative="1" as="geometry">
            <Array as="points">
              <mxPoint x="73" y="259" />
            </Array>
          </mxGeometry>
        </mxCell>
        <mxCell id="11" value="" style="curved=1;startArrow=none;endArrow=none;exitX=0.5;exitY=0.99;entryX=0.71;entryY=-0.01;" edge="1" parent="2" source="5" target="6">
          <mxGeometry relative="1" as="geometry">
            <Array as="points">
              <mxPoint x="148" y="259" />
            </Array>
          </mxGeometry>
        </mxCell>
      </root>
    </mxGraphModel>
  </diagram>
</mxfile>
